<?xml version="1.0" standalone="no"?>
<!DOCTYPE svg PUBLIC "-//W3C//DTD SVG 20010904//EN"
 "http://www.w3.org/TR/2001/REC-SVG-20010904/DTD/svg10.dtd">
<svg version="1.0" xmlns="http://www.w3.org/2000/svg"
 width="512.000000pt" height="512.000000pt" viewBox="0 0 512.000000 512.000000"
 preserveAspectRatio="xMidYMid meet">
<metadata>
Created by potrace 1.11, written by Peter Selinger 2001-2013
</metadata>
<g transform="translate(0.000000,512.000000) scale(0.100000,-0.100000)"
fill="#000000" stroke="none">
<path d="M2503 5108 c-13 -6 -23 -15 -23 -20 0 -4 -7 -8 -16 -8 -8 0 -35 -13
-59 -30 -24 -16 -50 -30 -58 -30 -9 0 -17 -4 -19 -9 -1 -5 -36 -26 -77 -47
-40 -22 -93 -50 -117 -64 -23 -14 -71 -40 -106 -58 -35 -19 -71 -41 -80 -50
-10 -8 -18 -12 -18 -9 0 4 -22 -7 -49 -23 -26 -17 -53 -30 -59 -30 -6 0 -17
-6 -24 -14 -12 -12 -47 -32 -198 -113 -25 -13 -63 -34 -85 -47 -22 -13 -71
-40 -110 -61 -38 -21 -88 -49 -110 -61 -22 -13 -60 -34 -85 -47 -25 -13 -76
-43 -115 -65 -38 -23 -86 -49 -105 -58 -19 -9 -47 -25 -61 -35 -14 -10 -32
-19 -40 -21 -8 -2 -16 -6 -19 -9 -3 -3 -36 -23 -75 -44 -82 -44 -138 -76 -232
-129 -37 -21 -86 -47 -108 -58 -22 -11 -47 -27 -57 -35 -9 -8 -22 -15 -30 -17
-7 -1 -24 -9 -38 -17 -14 -9 -37 -23 -52 -33 l-28 -16 0 -1290 0 -1290 23 -13
c12 -8 36 -22 52 -32 17 -11 36 -20 43 -21 8 -2 21 -9 30 -17 10 -8 35 -24 57
-35 22 -11 71 -37 108 -58 94 -53 150 -85 232 -129 39 -21 72 -41 75 -44 3 -3
11 -7 19 -9 8 -2 26 -11 40 -21 14 -10 42 -26 61 -35 19 -9 67 -35 105 -58 39
-22 90 -52 115 -65 25 -13 63 -34 85 -47 22 -12 72 -40 110 -61 39 -21 88 -48
110 -61 22 -13 60 -34 85 -47 151 -81 186 -101 198 -113 7 -8 18 -14 24 -14 6
0 33 -13 59 -30 27 -16 49 -27 49 -23 0 3 8 -1 18 -9 9 -9 45 -31 80 -50 35
-18 83 -44 106 -58 24 -14 77 -42 117 -64 41 -21 76 -42 77 -47 2 -5 10 -9 19
-9 8 0 34 -13 58 -30 24 -16 51 -30 59 -30 9 0 16 -4 16 -8 0 -13 47 -32 80
-32 33 0 80 19 80 32 0 4 7 8 16 8 8 0 35 14 59 30 24 17 50 30 58 30 9 0 17
4 19 9 2 5 36 26 77 47 40 22 93 50 117 64 23 14 71 40 106 58 35 19 71 41 81
50 9 8 17 12 17 9 0 -4 22 7 49 23 26 17 53 30 59 30 6 0 17 6 24 14 12 12 47
32 198 113 25 13 63 34 85 47 22 13 72 40 110 61 39 21 88 49 110 61 22 13 60
34 85 47 25 13 77 43 115 65 39 23 86 49 105 58 19 9 47 25 61 35 14 10 32 19
40 21 8 2 16 6 19 9 3 3 37 23 75 44 82 44 138 76 232 129 37 21 86 47 108 58
22 11 47 27 57 35 9 8 22 15 30 17 7 1 24 9 38 17 14 9 37 23 53 33 l27 16 0
1290 0 1290 -22 13 c-13 8 -36 22 -53 32 -16 11 -36 20 -43 21 -8 2 -21 9 -30
17 -10 8 -35 24 -57 35 -22 11 -71 37 -108 58 -94 53 -150 85 -232 129 -38 21
-72 41 -75 44 -3 3 -11 7 -19 9 -8 2 -26 11 -40 21 -14 10 -42 26 -61 35 -19
9 -66 35 -105 58 -38 22 -90 52 -115 65 -25 13 -63 34 -85 47 -22 12 -71 40
-110 61 -38 21 -88 48 -110 61 -22 13 -60 34 -85 47 -151 81 -186 101 -198
113 -7 8 -18 14 -24 14 -6 0 -33 13 -59 30 -27 16 -49 27 -49 23 0 -3 -8 1
-17 9 -10 9 -46 31 -81 50 -35 18 -83 44 -106 58 -24 14 -77 42 -117 64 -41
21 -75 42 -77 47 -2 5 -10 9 -19 9 -8 0 -34 14 -58 30 -24 17 -51 30 -59 30
-9 0 -16 4 -16 8 0 27 -95 40 -137 20z m147 -716 c30 -15 123 -68 205 -116 83
-49 173 -101 200 -117 28 -15 107 -60 177 -101 69 -40 139 -80 155 -89 15 -9
96 -56 178 -104 83 -48 168 -97 190 -110 22 -12 67 -38 100 -57 33 -19 105
-60 160 -92 55 -31 117 -75 138 -98 l37 -41 0 -267 c0 -261 -1 -268 -23 -301
-28 -42 -100 -81 -136 -72 -37 8 -84 38 -101 65 -12 18 -16 70 -20 233 l-5
210 -80 48 c-44 26 -105 61 -135 78 -30 16 -68 38 -85 48 -63 38 -282 165
-320 185 -64 35 -307 177 -346 202 -19 13 -38 24 -42 24 -4 0 -67 35 -140 79
-174 103 -192 112 -214 104 -10 -4 -85 -47 -166 -95 -81 -48 -151 -88 -154
-88 -4 0 -23 -11 -42 -24 -39 -25 -282 -167 -346 -202 -38 -20 -257 -147 -320
-185 -16 -10 -55 -32 -85 -48 -30 -17 -91 -52 -135 -78 l-80 -48 -3 -210 -2
-210 32 -19 c18 -10 51 -30 73 -43 47 -28 389 -224 454 -260 25 -13 97 -55
160 -92 64 -38 134 -78 156 -90 40 -22 91 -52 260 -150 50 -29 108 -63 130
-76 206 -117 192 -107 217 -162 27 -61 17 -102 -38 -153 -75 -69 -108 -61
-354 84 -116 68 -257 150 -295 170 -56 31 -302 174 -347 202 -21 13 -40 24
-43 24 -3 0 -72 40 -153 88 -81 48 -158 93 -172 100 -14 6 -92 51 -175 100
-121 70 -153 94 -167 122 -16 31 -18 71 -18 373 l0 338 42 42 c24 23 72 59
108 79 36 20 106 59 155 88 50 29 149 87 220 128 72 41 159 92 195 113 36 21
88 50 115 65 28 15 95 53 149 86 55 33 122 72 150 87 28 16 78 44 111 63 219
128 303 175 325 185 42 19 92 14 150 -15z m18 -1139 c76 -41 349 -198 372
-213 8 -5 33 -19 55 -31 22 -12 104 -59 182 -105 78 -46 144 -84 148 -84 3 0
21 -11 39 -25 18 -14 36 -25 40 -25 4 0 71 -38 149 -84 78 -46 160 -93 182
-105 61 -33 142 -79 235 -136 126 -76 120 -54 120 -451 0 -327 0 -331 -22
-364 -27 -40 -70 -68 -265 -179 -148 -84 -388 -223 -495 -287 -31 -19 -58 -34
-61 -34 -3 0 -67 -37 -143 -81 -77 -45 -168 -98 -204 -119 -36 -20 -120 -69
-187 -109 -166 -97 -215 -121 -253 -121 -38 0 -87 24 -253 121 -67 40 -151 89
-187 109 -36 21 -119 69 -186 108 -66 39 -140 82 -165 95 -24 13 -111 63 -194
112 -82 48 -184 107 -225 130 -345 195 -373 214 -401 259 -17 28 -19 53 -19
289 0 235 2 261 19 295 22 43 44 58 102 71 35 8 49 6 81 -10 69 -35 72 -47 78
-283 l5 -210 85 -51 c47 -28 121 -70 165 -94 74 -41 260 -149 295 -171 8 -5
35 -21 60 -34 25 -13 117 -66 205 -118 88 -52 169 -100 180 -106 11 -6 85 -49
165 -95 208 -121 184 -112 233 -84 23 13 98 56 167 96 69 39 134 77 145 83 11
6 92 54 180 106 88 52 180 105 205 118 25 14 61 34 80 45 19 12 98 57 175 102
77 44 187 108 245 142 l105 61 3 211 2 211 -57 32 c-102 56 -136 76 -228 130
-49 29 -119 70 -155 90 -110 62 -333 192 -372 217 -21 12 -40 23 -43 23 -3 0
-43 22 -88 49 -166 98 -305 179 -406 236 -107 61 -135 90 -147 152 -8 42 21
100 66 131 51 34 108 30 188 -15z"/>
</g>
</svg>
